<?xml version="1.0" encoding="utf-8"?>
<!-- Generator: Adobe Illustrator 26.3.1, SVG Export Plug-In . SVG Version: 6.00 Build 0)  -->
<svg version="1.1" xmlns="http://www.w3.org/2000/svg" xmlns:xlink="http://www.w3.org/1999/xlink" x="0px" y="0px"
	 viewBox="0 0 60 53" style="enable-background:new 0 0 60 53;" xml:space="preserve">
<style type="text/css">
	.st0{fill:none;stroke:#000000;stroke-linecap:round;stroke-linejoin:round;stroke-miterlimit:10;}
	.st1{fill:none;stroke:#E10098;stroke-linecap:round;stroke-linejoin:round;stroke-miterlimit:10;}
	.st2{fill:none;stroke:#000000;stroke-miterlimit:10;}
	
		.st3{clip-path:url(#SVGID_00000183949208079278397150000002892920732739948955_);fill-rule:evenodd;clip-rule:evenodd;fill:none;stroke:#000000;stroke-miterlimit:22.9256;}
	.st4{clip-path:url(#SVGID_00000183949208079278397150000002892920732739948955_);fill-rule:evenodd;clip-rule:evenodd;}
	.st5{display:none;}
	.st6{display:inline;fill:#FFFFFF;}
	.st7{display:inline;fill:none;stroke:#000000;stroke-linecap:round;stroke-linejoin:round;stroke-miterlimit:10;}
	.st8{display:inline;fill:none;stroke:#E10098;stroke-linecap:round;stroke-linejoin:round;stroke-miterlimit:10;}
	.st9{display:inline;}
	.st10{clip-path:url(#SVGID_00000165920273034460650880000015845162783931578537_);fill-rule:evenodd;clip-rule:evenodd;}
	
		.st11{clip-path:url(#SVGID_00000165920273034460650880000015845162783931578537_);fill-rule:evenodd;clip-rule:evenodd;fill:#FFFFFF;}
	.st12{clip-path:url(#SVGID_00000165920273034460650880000015845162783931578537_);fill:none;}
	.st13{display:inline;fill:none;stroke:#000000;stroke-miterlimit:10;}
	.st14{display:inline;fill:none;stroke:#231815;stroke-linecap:round;stroke-linejoin:round;stroke-miterlimit:10;}
	
		.st15{clip-path:url(#SVGID_00000129172910493565638020000005469556989944832169_);fill-rule:evenodd;clip-rule:evenodd;fill:none;stroke:#FFFFFF;stroke-miterlimit:10;}
	
		.st16{clip-path:url(#SVGID_00000129172910493565638020000005469556989944832169_);fill-rule:evenodd;clip-rule:evenodd;fill:#FFFFFF;}
	.st17{clip-path:url(#SVGID_00000129172910493565638020000005469556989944832169_);fill:none;}
	.st18{fill:none;stroke:#FFFFFF;stroke-miterlimit:10;}
	.st19{fill:none;stroke:#FFFFFF;stroke-linecap:round;stroke-linejoin:round;stroke-miterlimit:10;}
	.st20{fill:#FFFFFF;}
	.st21{display:inline;fill:none;stroke:#FFFFFF;stroke-linecap:round;stroke-linejoin:round;stroke-miterlimit:10;}
</style>
<g id="Circle">
</g>
<g id="Clipping">
</g>
<g id="Logo_2">
	<path class="st0" d="M30.68,7.77c-7.28,4.6-15.4,5.36-15.4,5.36v16.08c0,2.35,0.59,4.65,1.78,6.68c1.99,3.4,6,8.13,13.62,10.72
		c7.62-2.59,11.63-7.32,13.62-10.72c1.19-2.02,1.78-4.33,1.78-6.68V13.12C46.08,13.12,37.96,12.37,30.68,7.77z"/>
	<path class="st1" d="M30.68,43.76c-6.24-2.36-9.59-6.29-11.31-9.23c-0.92-1.58-1.41-3.42-1.41-5.32V15.43
		c2.86-0.53,7.83-1.78,12.72-4.54c4.89,2.76,9.86,4.01,12.72,4.54v13.78c0,1.9-0.49,3.75-1.41,5.33
		C40.26,37.47,36.91,41.4,30.68,43.76z"/>
	<circle class="st2" cx="30.67" cy="28.11" r="9.5"/>
	<g>
		<defs>
			<circle id="SVGID_1_" cx="30.67" cy="28.11" r="9.5"/>
		</defs>
		<clipPath id="SVGID_00000128449669859233409540000008644831044336660918_">
			<use xlink:href="#SVGID_1_"  style="overflow:visible;"/>
		</clipPath>
		
			<path style="clip-path:url(#SVGID_00000128449669859233409540000008644831044336660918_);fill-rule:evenodd;clip-rule:evenodd;fill:none;stroke:#000000;stroke-miterlimit:22.9256;" d="
			M38.27,39.73c-6-2.07-6.94-4.52-8.32-10.13c-0.42-1.8-1.45-1.57-3.32-2.09c-1.66-0.46-1.41-2.73,0.31-3.12
			c0.79-1.85,2.98-2.2,4.52-0.5c2.54,2.81,2.25,11.17,8.37,7.55c4.99-2.94,9.63-3.9,14.01,0.71c3.93,4.13,6.19,11.83,3.07,17
			c-1.39,2.3-3.91,3.82-7.67,3.38l-12.57-1.47c1.93-3.76,10.08-1.08,13.88-1.71c5.24-0.87,4.14-9.24,0.06-8.95
			c0.63,2.2,0.62,3.91-0.64,5.92l-3.14-0.37c-0.17-1.03,0.25-1.45,0.64-1.78c1.13-0.95,0.43-2.09-0.17-2.95
			c-1.19-1.71-1.85-3.41-1.77-5.8"/>
		
			<path style="clip-path:url(#SVGID_00000128449669859233409540000008644831044336660918_);fill-rule:evenodd;clip-rule:evenodd;" d="
			M29.08,25.6c0.33,0.04,0.64-0.2,0.68-0.53c0.04-0.33-0.2-0.64-0.53-0.68c-0.33-0.04-0.64,0.2-0.68,0.53
			C28.51,25.25,28.75,25.56,29.08,25.6z"/>
	</g>
</g>
<g id="Logo_1" class="st5">
	<rect x="-70.83" y="102.19" class="st6" width="60" height="62"/>
	<path class="st7" d="M30.53,8.33c-7.28,4.6-15.4,5.36-15.4,5.36v16.08c0,2.35,0.59,4.65,1.78,6.68c1.99,3.4,6,8.13,13.62,10.72
		c7.62-2.59,11.63-7.32,13.62-10.72c1.19-2.02,1.78-4.33,1.78-6.68V13.69C45.93,13.69,37.81,12.94,30.53,8.33z"/>
	<path class="st8" d="M30.53,44.33c-6.24-2.36-9.59-6.29-11.31-9.23c-0.92-1.58-1.41-3.42-1.41-5.32V16
		c2.86-0.53,7.83-1.78,12.72-4.54c4.89,2.76,9.86,4.01,12.72,4.54v13.78c0,1.9-0.49,3.75-1.41,5.33
		C40.12,38.04,36.77,41.97,30.53,44.33z"/>
	<g class="st9">
		<defs>
			<circle id="SVGID_00000063629964502189784050000005386289884079355804_" cx="30.57" cy="28.06" r="9.5"/>
		</defs>
		<clipPath id="SVGID_00000131337491769739145890000003767255491656095934_">
			<use xlink:href="#SVGID_00000063629964502189784050000005386289884079355804_"  style="overflow:visible;"/>
		</clipPath>
		
			<path style="clip-path:url(#SVGID_00000131337491769739145890000003767255491656095934_);fill-rule:evenodd;clip-rule:evenodd;" d="
			M37.88,40.62c-6-2.07-6.94-4.52-8.32-10.13c-0.42-1.8-1.45-1.57-3.32-2.09c-1.66-0.46-1.41-2.73,0.31-3.12
			c0.79-1.85,2.98-2.2,4.52-0.5c2.54,2.81,2.25,11.17,8.37,7.55c4.99-2.94,9.63-3.9,14.01,0.71c3.93,4.13,6.19,11.83,3.07,17
			c-1.39,2.3-3.91,3.82-7.67,3.38l-12.57-1.47c1.93-3.76,10.08-1.08,13.88-1.71c5.24-0.87,4.14-9.24,0.06-8.95
			c0.63,2.2,0.62,3.91-0.64,5.92l-3.14-0.37c-0.17-1.03,0.25-1.45,0.64-1.78c1.13-0.95,0.43-2.09-0.17-2.95
			c-1.19-1.71-1.85-3.41-1.77-5.8"/>
		
			<path style="clip-path:url(#SVGID_00000131337491769739145890000003767255491656095934_);fill-rule:evenodd;clip-rule:evenodd;fill:#FFFFFF;" d="
			M28.69,26.49c0.33,0.04,0.64-0.2,0.68-0.53c0.04-0.33-0.2-0.64-0.53-0.68c-0.33-0.04-0.64,0.2-0.68,0.53
			C28.11,26.15,28.35,26.45,28.69,26.49z"/>
		
			<circle style="clip-path:url(#SVGID_00000131337491769739145890000003767255491656095934_);fill:none;" cx="30.28" cy="29" r="9.5"/>
	</g>
	<circle class="st13" cx="30.57" cy="28.06" r="9.5"/>
</g>
<g id="Logo_3" class="st5">
	<g class="st9">
		<path d="M33.79,24.32c0.39,0.13,0.14,1.86-0.84,4.02c-0.98,2.16-1.53,4.18-3.04,3.99c-1.51-0.19-1.62-2.59-1.59-3.59
			c0.02-0.99-0.94-4.09-0.7-4.43c0.52-0.73,1.17,0.96,1.56,0.79c0.39-0.17,0.65-2.7,1.48-2.55c0.82,0.15,0.95,2.74,1.68,2.7
			C33.06,25.21,33.29,24.16,33.79,24.32z"/>
		<path d="M28.17,23.64c-0.13-0.12-0.61-1.48-0.84-1.26c-0.23,0.22-0.07,1.4,0.02,1.46C27.45,23.9,28.44,23.89,28.17,23.64z"/>
		<path d="M30.94,20.46c0,0-0.75,1.23-0.67,1.42c0.08,0.19,0.92,0.62,0.98,0.33C31.31,21.92,31.28,20.55,30.94,20.46z"/>
		<path d="M34.27,22.5c-0.22-0.06-0.86,1.24-0.65,1.36c0.21,0.12,0.74,0.24,0.76,0.09C34.4,23.81,34.57,22.59,34.27,22.5z"/>
	</g>
	<path class="st14" d="M30.4,6.72c-7.03,4.45-14.87,5.17-14.87,5.17v15.53c0,2.26,0.57,4.49,1.72,6.45
		c1.92,3.28,5.79,7.85,13.15,10.35c7.36-2.5,11.23-7.07,13.15-10.35c1.14-1.95,1.72-4.18,1.72-6.45V11.89
		C45.27,11.89,37.43,11.16,30.4,6.72z"/>
	<path class="st8" d="M30.4,41.47c-6.02-2.28-9.26-6.07-10.92-8.91c-0.89-1.52-1.36-3.3-1.36-5.14v-13.3
		c2.76-0.51,7.56-1.72,12.28-4.39c4.72,2.67,9.52,3.87,12.28,4.39v13.3c0,1.84-0.47,3.62-1.36,5.14
		C39.66,35.4,36.43,39.2,30.4,41.47z"/>
</g>
<g id="Logo_4" class="st5">
	<rect x="-0.19" y="-26.96" class="st9" width="51" height="47"/>
	<g class="st9">
		<g>
			<defs>
				<circle id="SVGID_00000082332253172156014650000011404433364088675236_" cx="25.92" cy="-4.04" r="9.5"/>
			</defs>
			<clipPath id="SVGID_00000075876713177273771390000016327931917798825881_">
				<use xlink:href="#SVGID_00000082332253172156014650000011404433364088675236_"  style="overflow:visible;"/>
			</clipPath>
			
				<path style="clip-path:url(#SVGID_00000075876713177273771390000016327931917798825881_);fill-rule:evenodd;clip-rule:evenodd;fill:none;stroke:#FFFFFF;stroke-miterlimit:10;" d="
				M33.23,8.52c-6-2.07-6.94-4.52-8.32-10.13c-0.42-1.8-1.45-1.57-3.32-2.09c-1.66-0.46-1.41-2.73,0.31-3.12
				c0.79-1.85,2.98-2.2,4.52-0.5c2.54,2.81,2.25,11.17,8.37,7.55c4.99-2.94,9.63-3.9,14.01,0.71c3.93,4.13,6.19,11.83,3.07,17
				c-1.39,2.3-3.91,3.82-7.67,3.38l-12.57-1.47c1.93-3.76,10.08-1.08,13.88-1.71c5.24-0.87,4.14-9.24,0.06-8.95
				c0.63,2.2,0.62,3.91-0.64,5.92l-3.14-0.37c-0.17-1.03,0.25-1.45,0.64-1.78c1.13-0.95,0.43-2.09-0.17-2.95
				c-1.19-1.71-1.85-3.41-1.77-5.8"/>
			
				<path style="clip-path:url(#SVGID_00000075876713177273771390000016327931917798825881_);fill-rule:evenodd;clip-rule:evenodd;fill:#FFFFFF;" d="
				M24.04-5.62c0.33,0.04,0.64-0.2,0.68-0.53c0.04-0.33-0.2-0.64-0.53-0.68c-0.33-0.04-0.64,0.2-0.68,0.53
				C23.47-5.96,23.71-5.66,24.04-5.62z"/>
			
				<circle style="clip-path:url(#SVGID_00000075876713177273771390000016327931917798825881_);fill:none;" cx="25.64" cy="-3.1" r="9.5"/>
		</g>
		<circle class="st18" cx="25.27" cy="-3.83" r="9.5"/>
	</g>
	<g class="st9">
		<path class="st19" d="M25.35-23.14c-7.28,4.6-15.4,5.36-15.4,5.36V-1.7c0,2.35,0.59,4.65,1.78,6.68c1.99,3.4,6,8.13,13.62,10.72
			c7.62-2.59,11.63-7.32,13.62-10.72c1.19-2.02,1.78-4.33,1.78-6.68v-16.08C40.75-17.78,32.63-18.53,25.35-23.14z"/>
		<path class="st1" d="M25.35,12.86c-6.24-2.36-9.59-6.29-11.31-9.23c-0.92-1.58-1.41-3.42-1.41-5.32v-13.78
			c2.86-0.53,7.83-1.78,12.72-4.54c4.89,2.76,9.86,4.01,12.72,4.54V-1.7c0,1.9-0.49,3.75-1.41,5.33
			C34.93,6.57,31.58,10.5,25.35,12.86z"/>
	</g>
</g>
<g id="레이어_7" class="st5">
	<rect x="1.9" y="73.97" class="st9" width="51" height="47"/>
	<g class="st9">
		<path class="st20" d="M30.69,95.91c0.39,0.13,0.14,1.86-0.84,4.02c-0.98,2.16-1.53,4.18-3.04,3.99c-1.51-0.19-1.62-2.59-1.59-3.59
			c0.02-0.99-0.94-4.09-0.7-4.43c0.52-0.73,1.17,0.96,1.56,0.79c0.39-0.17,0.65-2.7,1.48-2.55c0.82,0.15,0.95,2.74,1.68,2.7
			C29.97,96.79,30.19,95.75,30.69,95.91z"/>
		<path class="st20" d="M25.08,95.22c-0.13-0.12-0.61-1.48-0.84-1.26c-0.23,0.22-0.07,1.4,0.02,1.46
			C24.35,95.48,25.34,95.47,25.08,95.22z"/>
		<path class="st20" d="M27.85,92.05c0,0-0.75,1.23-0.67,1.42c0.08,0.19,0.92,0.62,0.98,0.33C28.21,93.5,28.18,92.14,27.85,92.05z"
			/>
		<path class="st20" d="M31.18,94.09c-0.22-0.06-0.86,1.24-0.65,1.36c0.21,0.12,0.74,0.24,0.76,0.09
			C31.3,95.39,31.48,94.18,31.18,94.09z"/>
	</g>
	<path class="st21" d="M27.31,78.3c-7.03,4.45-14.87,5.17-14.87,5.17v15.53c0,2.26,0.57,4.49,1.72,6.45
		c1.92,3.28,5.79,7.85,13.15,10.35c7.36-2.5,11.23-7.07,13.15-10.35c1.14-1.95,1.72-4.18,1.72-6.45V83.48
		C42.18,83.48,34.34,82.75,27.31,78.3z"/>
	<path class="st8" d="M27.31,113.06c-6.02-2.28-9.26-6.07-10.92-8.91c-0.89-1.52-1.36-3.3-1.36-5.14V85.7
		c2.76-0.51,7.56-1.72,12.28-4.39c4.72,2.67,9.52,3.87,12.28,4.39v13.3c0,1.84-0.47,3.62-1.36,5.14
		C36.56,106.99,33.33,110.78,27.31,113.06z"/>
</g>
</svg>
