<svg width="244" height="312" viewBox="0 0 244 312" fill="none" xmlns="http://www.w3.org/2000/svg">
<path d="M122 304.174C65.5849 282.837 35.298 247.307 19.7477 220.726C11.43 206.442 7 189.807 7 172.629V48.0456C32.8569 43.2539 77.7901 31.9528 122 7C166.21 31.9528 211.143 43.2539 237 48.0456V172.629C237 189.807 232.57 206.532 224.252 220.817C208.612 247.307 178.325 282.837 122 304.174Z" fill="black" stroke="white" stroke-width="14" stroke-miterlimit="10" stroke-linecap="round" stroke-linejoin="round"/>
<path fill-rule="evenodd" clip-rule="evenodd" d="M108.015 129.943C112.348 130.468 116.418 127.317 116.943 122.985C117.468 118.652 114.317 114.582 109.985 114.057C105.652 113.532 101.582 116.683 101.057 121.015C100.532 125.348 103.683 129.418 108.015 129.943Z" fill="white"/>
<path d="M170.5 278L163 266L131.5 203.5C120.5 174.5 100.579 179.149 68.0313 170.099C39.1383 162.092 43.4897 122.582 73.4271 115.794C87.1773 83.5936 125.295 77.5017 152.1 107.091C178.044 135.794 186.5 209 217.5 230.5" stroke="white" stroke-width="14" stroke-miterlimit="22.9256"/>
</svg>
